# Blender 3.3.1
# www.blender.org
mtllib libro2.mtl
o Cube
v -1.478151 0.238504 1.000000
v -1.480862 0.131280 1.000000
v -1.478151 0.238504 -1.000000
v -1.480862 0.131280 -1.000000
v -0.086842 0.203319 1.000000
v -0.090389 0.203409 0.411067
v -0.074973 0.203019 -1.000000
v -0.144148 0.135707 -1.000000
v -0.106731 0.096529 -1.000000
v -0.144145 0.135712 -1.000000
v -0.103975 0.096460 1.000000
v -0.115939 0.096762 0.267254
v -0.142759 0.119404 1.000000
v -0.142763 0.119409 1.000000
vn 0.0253 0.9997 -0.0000
vn -0.0000 -0.0000 -1.0000
vn -0.0253 -0.9997 -0.0000
vn -0.9997 0.0253 -0.0000
vn -0.0000 -0.0000 1.0000
vn 0.7232 0.6907 0.0051
vn 0.7886 -0.6149 -0.0005
vn 0.5092 0.8606 -0.0080
vt 0.625000 0.500000
vt 0.375000 0.500000
vt 0.625000 0.750000
vt 0.375000 0.750000
vt 0.869830 0.500000
vt 0.625000 0.255170
vt 0.130787 0.999964
vt 0.869206 0.573617
vt 0.132331 0.854231
vt 0.871919 0.750000
vt 0.625000 0.996919
vt 0.136005 0.500010
vt 0.464082 0.985053
vt 0.260719 0.500023
vt 0.375000 0.991808
vt 0.133192 0.750000
vt 0.339275 0.500024
vt 0.464094 0.985054
vt 0.260709 0.500023
vt 0.132707 0.500000
vt 0.375000 0.257707
vt 0.345601 0.999971
vt 0.134813 0.591593
vt 0.334013 0.816803
vt 0.426177 0.264630
vt 0.285841 0.999970
vt 0.426188 0.264631
vt 0.285832 0.999970
s 0
usemtl Material
f 3/3/1 1/1/1 5/5/1 6/8/1 7/10/1
f 4/4/2 3/3/2 7/11/2 10/18/2 8/13/2 9/15/2
f 11/20/3 2/2/3 4/4/3 9/16/3 12/23/3
f 2/2/4 1/1/4 3/3/4 4/4/4
f 14/27/5 5/6/5 1/1/5 2/2/5 11/21/5 13/25/5
f 12/24/6 9/17/6 8/14/6 14/28/6 13/26/6
f 6/9/7 5/7/7 14/28/7 8/14/7 10/19/7 7/12/7
f 12/24/8 13/26/8 11/22/8
o Cylinder
v 0.118805 0.204869 1.000159
v 0.143473 0.165707 -1.000004
v 0.115262 0.085240 1.000105
v 0.068515 0.053110 -1.000091
v -0.069551 0.057601 -1.000098
v -0.014019 0.043242 1.000108
v -0.144148 0.135708 -1.000092
v -0.142763 0.119408 1.000121
v -0.067947 0.231671 1.000153
v -0.030041 0.246738 -1.000006
vn 0.4231 0.9060 -0.0125
vn 0.8324 -0.5541 -0.0106
vn -0.0325 -0.9995 -0.0063
vn -0.7232 -0.6907 -0.0051
vn -0.7634 0.6459 -0.0019
vn 0.1421 0.9898 0.0101
vn 0.9995 -0.0296 0.0129
vn 0.3090 -0.9510 0.0081
vn -0.5092 -0.8606 0.0080
vn -0.0000 -0.0003 1.0000
vn 0.0002 0.0005 -1.0000
vt 0.853088 1.000000
vt 0.422968 0.380562
vt 0.785857 0.500000
vt 0.966236 0.299558
vt 0.651060 1.000000
vt 0.437464 0.115614
vt 0.578934 0.500000
vt 0.857383 0.051543
vt 0.417331 0.500000
vt 0.633655 0.046621
vt 0.484210 1.000000
vt 0.227420 0.023588
vt 0.260718 0.500000
vt 0.523568 0.234803
vt 0.285833 1.000000
vt 0.033622 0.200410
vt 0.078401 1.000000
vt 1.000000 1.000000
vt 0.142929 0.449871
vt 0.055004 0.500000
vt 0.956397 0.500000
vt 0.708847 0.457139
s 0
usemtl Material
f 15/29/9 16/31/9 24/49/9
f 17/33/10 18/35/10 16/31/10
f 18/35/11 20/39/11 19/37/11
f 19/37/12 22/43/12 21/41/12
f 23/45/13 24/48/13 21/41/13 22/43/13
f 23/46/14 15/29/14 24/49/14
f 15/29/15 17/33/15 16/31/15
f 17/33/16 20/39/16 18/35/16
f 19/37/17 20/39/17 22/43/17
f 20/40/18 17/34/18 15/30/18 23/47/18 22/44/18
f 21/42/19 24/50/19 16/32/19 18/36/19 19/38/19
o Cube.001
v 1.479256 0.238504 -1.000000
v 1.481968 0.131280 -1.000000
v 1.479256 0.238504 1.000000
v 1.481968 0.131280 1.000000
v 0.064219 0.202719 -1.000000
v 0.119282 0.204112 0.961482
v 0.118784 0.204099 1.000000
v 0.115604 0.096726 1.000000
v 0.097243 0.096261 -1.000000
v 0.119322 0.096820 0.712279
v 0.143473 0.165707 -1.000000
v 0.143474 0.165708 -1.000000
vn -0.0253 0.9997 -0.0000
vn -0.0000 -0.0000 1.0000
vn 0.0253 -0.9997 -0.0000
vn 0.9997 0.0253 -0.0000
vn -0.0000 -0.0000 -1.0000
vn -0.4231 -0.9060 0.0125
vn -0.8324 0.5541 0.0106
vn -0.9995 0.0296 -0.0129
vt 0.625000 0.500000
vt 0.375000 0.500000
vt 0.625000 0.750000
vt 0.375000 0.750000
vt 0.874006 0.500000
vt 0.625000 0.250994
vt 0.863753 0.500001
vt 0.864317 0.745185
vt 0.851788 0.990332
vt 0.864404 0.750000
vt 0.625000 0.989404
vt 0.851788 0.999960
vt 0.375000 0.990441
vt 0.134559 0.750000
vt 0.670457 0.999973
vt 0.131328 0.500000
vt 0.375000 0.256328
vt 0.658235 0.500014
vt 0.135213 0.714035
vt 0.670458 0.928048
vt 0.534090 0.264767
vt 0.785856 0.500001
vt 0.534090 0.264767
vt 0.785857 0.500001
s 0
usemtl Material
f 27/53/20 25/51/20 29/55/20 30/58/20 31/60/20
f 32/63/21 28/54/21 27/53/21 31/61/21
f 33/66/22 26/52/22 28/54/22 32/64/22 34/69/22
f 26/52/23 25/51/23 27/53/23 28/54/23
f 36/73/24 29/56/24 25/51/24 26/52/24 33/67/24 35/71/24
f 29/57/25 36/74/25 30/59/25
f 34/70/26 35/72/26 33/68/26
f 31/62/27 30/59/27 36/74/27 35/72/27 34/70/27 32/65/27
o Cube.002
v -1.274577 0.318390 0.906298
v -1.340027 0.225860 0.906298
v -1.274577 0.318390 -0.906297
v -1.340027 0.225860 -0.906297
v 0.003297 0.193647 0.906297
v 0.003297 0.193647 -0.906298
v 0.004107 0.393525 0.906297
v -0.157238 0.472978 0.906297
v -0.157238 0.472978 -0.906298
v 0.004107 0.393525 -0.906298
vn -0.0000 -0.0000 -1.0000
vn -0.1370 0.9906 -0.0000
vn -0.0240 -0.9997 -0.0000
vn -0.8164 0.5775 -0.0000
vn 1.0000 -0.0041 -0.0000
vn 0.4418 0.8971 -0.0000
vn -0.0000 -0.0000 1.0000
vt 0.016047 0.239284
vt 0.016047 0.242806
vt 0.286370 0.727347
vt 0.016047 0.284063
vt 0.269277 0.627935
vt 0.291578 0.501635
vt 0.430355 0.239284
vt 0.431140 0.242806
vt 0.275285 0.579067
vt 0.247777 0.284063
vt 0.431140 0.284063
vt 0.016047 0.516118
vt 0.622167 0.629598
vt 0.611646 0.574685
vt 0.247777 0.516118
vt 0.016047 0.947871
vt 0.016047 0.949460
vt 0.622167 0.840608
vt 0.016047 0.008854
vt 0.016048 0.995350
vt 0.579701 0.920195
vt 0.571170 0.354445
vt 0.430355 0.008854
vt 0.429428 0.995350
vt 0.611646 0.415189
vt 0.247777 0.947871
vt 0.429428 0.949460
s 0
usemtl Material.002
f 40/83/28 39/80/28 45/96/28 46/99/28 42/88/28
f 37/75/29 44/93/29 45/97/29 39/81/29
f 41/86/30 38/78/30 40/84/30 42/89/30
f 38/78/31 37/76/31 39/82/31 40/85/31
f 42/89/32 46/100/32 43/90/32 41/86/32
f 45/98/33 44/94/33 43/91/33 46/101/33
f 41/87/34 43/92/34 44/95/34 37/77/34 38/79/34
o Cube.003
v 1.282653 0.318390 -0.906298
v 1.348103 0.225860 -0.906298
v 1.282653 0.318390 0.906298
v 1.348103 0.225860 0.906298
v 0.003008 0.193028 -0.906298
v 0.003008 0.193028 0.906298
v 0.003970 0.393525 -0.906298
v 0.165314 0.472978 -0.906298
v 0.165314 0.472978 0.906298
v 0.003970 0.393525 0.906298
vn -0.0000 -0.0000 1.0000
vn 0.1370 0.9906 -0.0000
vn 0.0244 -0.9997 -0.0000
vn 0.8164 0.5775 -0.0000
vn -1.0000 0.0048 -0.0000
vn -0.4418 0.8971 -0.0000
vn -0.0000 -0.0000 -1.0000
vt 0.005831 0.215034
vt 0.005831 0.215877
vt 0.257865 0.563695
vt 0.005831 0.255971
vt 0.235863 0.502536
vt 0.276083 0.832067
vt 0.373661 0.215034
vt 0.373397 0.215878
vt 0.258193 0.882982
vt 0.212039 0.256027
vt 0.373397 0.255971
vt 0.005831 0.462784
vt 0.684931 0.503137
vt 0.623320 0.882482
vt 0.212039 0.462784
vt 0.005831 0.953747
vt 0.684931 0.633330
vt 0.005831 0.010481
vt 0.005831 0.995112
vt 0.631187 0.682300
vt 0.579622 0.733326
vt 0.373661 0.010481
vt 0.374688 0.995112
vt 0.623321 0.774094
vt 0.212039 0.953747
vt 0.374688 0.953747
s 0
usemtl Material.006
f 50/110/35 49/107/35 55/122/35 56/125/35 52/115/35
f 47/102/36 54/119/36 55/123/36 49/108/36
f 51/113/37 48/105/37 50/111/37 52/116/37
f 48/105/38 47/103/38 49/109/38 50/112/38
f 52/116/39 56/126/39 53/117/39 51/113/39
f 55/124/40 54/120/40 53/117/40 56/127/40
f 51/114/41 53/118/41 54/121/41 47/104/41 48/106/41
